<svg width="210" height="48" viewBox="0 0 210 48" fill="none" xmlns="http://www.w3.org/2000/svg">
<g clip-path="url(#clip0_366_125)">
<path d="M58.8592 15.5076C57.5511 16.3298 55.9617 16.7442 54.078 16.7442C52.1943 16.7442 50.6572 16.3966 49.1856 15.7014C47.714 15.0063 46.8702 13.8766 46.6478 12.3058L46.6021 12.0117H49.1398L49.1856 12.2055C49.3622 12.9676 49.9116 13.5157 50.8469 13.8566C51.7822 14.1975 52.7699 14.3646 53.8164 14.3646C54.9871 14.3646 56.0206 14.1574 56.9166 13.7429C57.8127 13.3285 58.2575 12.6601 58.2575 11.7443C58.2575 10.8286 57.7931 10.1802 56.8578 9.86604C55.9224 9.55187 54.8759 9.39145 53.7248 9.39145C51.7299 9.39145 50.0947 9.09734 48.8193 8.50912C47.5439 7.9209 46.9095 6.72441 46.9095 4.93302C46.9095 3.24857 47.5308 2.01198 48.7735 1.20986C50.0097 0.401058 51.5337 0 53.3389 0C55.1441 0 56.6746 0.347584 58.0743 1.04275C59.474 1.73792 60.272 2.86757 60.4616 4.43838L60.5074 4.70575H57.9697L57.9239 4.53864C57.7669 3.79669 57.2437 3.24857 56.3541 2.90099C55.4646 2.55341 54.5293 2.37961 53.5286 2.37961C52.469 2.37961 51.5271 2.57346 50.703 2.96115C49.8789 3.34884 49.4668 3.97048 49.4668 4.82607C49.4668 5.68166 49.892 6.2632 50.7488 6.5573C51.6056 6.8581 52.554 7.00515 53.6005 7.00515C55.687 7.00515 57.4137 7.30595 58.7742 7.91422C60.1346 8.52249 60.8148 9.7524 60.8148 11.6106C60.8148 13.3753 60.1608 14.6654 58.8592 15.4942V15.5076Z" fill="#EFEFEF"/>
<path d="M82.5167 0.314209V2.69382H76.3947V16.4234H73.8569V2.69382H67.7087V0.314209H82.5233H82.5167Z" fill="#EFEFEF"/>
<path d="M104.009 12.5933C103.447 13.8232 102.629 14.8192 101.55 15.5878C100.471 16.3565 99.2018 16.7375 97.7301 16.7375C96.2585 16.7375 94.9831 16.3565 93.9104 15.5878C92.8312 14.8192 92.0202 13.8232 91.4642 12.5933C90.9082 11.3634 90.6335 10.0733 90.6335 8.7097V0.314209H93.1713V8.7097C93.1713 9.6455 93.3479 10.5345 93.7076 11.3634C94.0674 12.1989 94.5841 12.874 95.2774 13.3887C95.9642 13.9101 96.7883 14.1641 97.7367 14.1641C98.6851 14.1641 99.5026 13.9034 100.196 13.3887C100.883 12.874 101.406 12.1922 101.766 11.35C102.125 10.5078 102.302 9.62545 102.302 8.70301V0.314209H104.866V8.7097C104.866 10.0666 104.585 11.3634 104.022 12.5933H104.009Z" fill="#EFEFEF"/>
<path d="M125.475 1.41044C126.64 2.13902 127.536 3.11493 128.17 4.34485C128.805 5.57476 129.119 6.9183 129.119 8.37548C129.119 9.83266 128.805 11.1495 128.17 12.3794C127.536 13.6093 126.64 14.5919 125.475 15.3272C124.311 16.0624 122.964 16.4301 121.427 16.4301H113.997V0.314209H121.427C122.964 0.314209 124.311 0.675161 125.475 1.40375V1.41044ZM121.427 14.0505C122.441 14.0505 123.324 13.7898 124.089 13.2617C124.854 12.7336 125.423 12.0385 125.822 11.1762C126.214 10.3139 126.417 9.38481 126.417 8.39553C126.417 7.40626 126.221 6.45709 125.822 5.58144C125.423 4.7058 124.847 4.01063 124.089 3.48257C123.33 2.95451 122.441 2.69382 121.427 2.69382H116.534V14.0505H121.427Z" fill="#EFEFEF"/>
<path d="M140.087 0.314209V16.4234H137.55V0.314209H140.087Z" fill="#EFEFEF"/>
<path d="M156.086 16.7375C160.608 16.7375 164.274 12.9907 164.274 8.36875C164.274 3.74682 160.608 0 156.086 0C151.563 0 147.897 3.74682 147.897 8.36875C147.897 12.9907 151.563 16.7375 156.086 16.7375Z" fill="#EFEFEF"/>
<path d="M12.2637 46.7634C10.9556 47.5855 9.36623 48 7.48253 48C5.59883 48 4.06178 47.6524 2.59014 46.9572C1.1185 46.262 0.268217 45.1324 0.0523762 43.5616L0.0065918 43.2675H2.54436L2.59014 43.4613C2.76674 44.2233 3.31615 44.7714 4.25146 45.1123C5.18677 45.4532 6.17441 45.6203 7.22091 45.6203C8.39168 45.6203 9.4251 45.4131 10.3212 44.9987C11.2172 44.5843 11.662 43.9158 11.662 43.0001C11.662 42.0843 11.1976 41.436 10.2623 41.1218C9.32699 40.8076 8.28703 40.6472 7.12934 40.6472C5.13444 40.6472 3.49929 40.3531 2.23041 39.7649C0.954983 39.1767 0.320542 37.9802 0.320542 36.1888C0.320542 34.5043 0.941902 33.2677 2.18462 32.4656C3.42734 31.6635 4.95131 31.2625 6.75652 31.2625C8.56173 31.2625 10.0922 31.61 11.4919 32.3052C12.8916 33.0004 13.6896 34.13 13.8793 35.7008L13.9251 35.9682H11.3873L11.3415 35.8011C11.1845 35.0591 10.6613 34.511 9.77175 34.1634C8.88223 33.8159 7.94692 33.6421 6.9462 33.6421C5.88662 33.6421 4.94477 33.8359 4.12065 34.2236C3.29653 34.6113 2.88447 35.2329 2.88447 36.0952C2.88447 36.9575 3.30961 37.5323 4.16643 37.8264C5.02325 38.1272 5.97165 38.2743 7.01815 38.2743C9.10461 38.2743 10.8313 38.5751 12.1918 39.1834C13.5522 39.7916 14.2325 41.0215 14.2325 42.8798C14.2325 44.6444 13.5784 45.9345 12.2768 46.7634H12.2637Z" fill="#EFEFEF"/>
<path d="M34.8943 47.6858L33.0891 43.5148H25.6328L23.8733 47.6858H21.1655L28.0266 31.4563H30.5186L37.6414 47.6858H34.8878H34.8943ZM32.2584 41.1619L29.3152 34.4442L26.5158 41.1619H32.2584Z" fill="#EFEFEF"/>
<path d="M48.028 35.7009V47.6858H45.4902V31.5767H47.8906L57.767 43.5616V31.5767H60.3048V47.6858H57.9043L48.028 35.7009Z" fill="#EFEFEF"/>
<path d="M83.2035 31.5767V33.9563H77.0815V47.6858H74.5437V33.9563H68.3955V31.5767H83.21H83.2035Z" fill="#EFEFEF"/>
<path d="M101.818 47.6858L100.013 43.5148H92.5566L90.7972 47.6858H88.0894L94.9505 31.4563H97.4425L104.565 47.6858H101.812H101.818ZM99.1823 41.1619L96.239 34.4442L93.4396 41.1619H99.1823Z" fill="#EFEFEF"/>
<path d="M127.268 31.5767V47.6858H124.73V31.5767H127.268Z" fill="#EFEFEF"/>
<path d="M147.884 32.6662C149.048 33.3948 149.944 34.3707 150.579 35.6006C151.213 36.8305 151.527 38.1741 151.527 39.6312C151.527 41.0884 151.213 42.4052 150.579 43.6351C149.944 44.8651 149.048 45.8477 147.884 46.5829C146.72 47.3182 145.372 47.6858 143.835 47.6858H136.405V31.5767H143.835C145.372 31.5767 146.72 31.9376 147.884 32.6662ZM143.835 45.3062C144.849 45.3062 145.732 45.0455 146.497 44.5175C147.256 43.9894 147.832 43.2942 148.23 42.432C148.623 41.5697 148.826 40.6406 148.826 39.6513C148.826 38.662 148.629 37.7129 148.23 36.8372C147.832 35.9616 147.256 35.2664 146.497 34.7383C145.739 34.2103 144.849 33.9496 143.835 33.9496H138.943V45.3062H143.835Z" fill="#EFEFEF"/>
<path d="M171.397 38.4213V40.821H162.495V45.3128H174.458V47.6924H159.951V31.5833H174.458V33.9629H162.495V38.428H171.397V38.4213Z" fill="#EFEFEF"/>
<path d="M185.715 31.5767V47.6858H183.177V31.5767H185.715Z" fill="#EFEFEF"/>
<path d="M207.246 47.6858L205.441 43.5148H197.985L196.225 47.6858H193.518L200.379 31.4563H202.871L209.993 47.6858H207.24H207.246ZM204.61 41.1619L201.667 34.4442L198.868 41.1619H204.61Z" fill="#EFEFEF"/>
</g>
<defs>
<clipPath id="clip0_366_125">
<rect width="210" height="48" fill="white"/>
</clipPath>
</defs>
</svg>
